<svg width="183" height="70" viewBox="0 0 183 70" fill="none" xmlns="http://www.w3.org/2000/svg">
<rect width="182.206" height="69.5454" rx="11.3382" fill="#B43FEB"/>
<path d="M42.5895 44.5881C41.1701 44.5881 39.8472 44.3603 38.6206 43.9047C37.4116 43.4316 36.3602 42.7657 35.4666 41.9071C34.5729 41.0485 33.872 40.041 33.3639 38.8845C32.8732 37.728 32.6279 36.4576 32.6279 35.0734C32.6279 33.6891 32.8732 32.4187 33.3639 31.2622C33.872 30.1057 34.5729 29.0982 35.4666 28.2396C36.3777 27.381 37.4378 26.7239 38.6469 26.2683C39.8559 25.7952 41.1789 25.5586 42.6157 25.5586C44.2103 25.5586 45.6471 25.839 46.9263 26.3997C48.2229 26.9429 49.3093 27.7489 50.1855 28.8178L47.452 31.3411C46.8211 30.6226 46.1202 30.0882 45.3493 29.7377C44.5783 29.3698 43.7372 29.1858 42.826 29.1858C41.9674 29.1858 41.1789 29.326 40.4605 29.6063C39.7421 29.8867 39.12 30.2897 38.5943 30.8154C38.0687 31.3411 37.6569 31.9631 37.359 32.6815C37.0786 33.4 36.9384 34.1972 36.9384 35.0734C36.9384 35.9495 37.0786 36.7468 37.359 37.4652C37.6569 38.1836 38.0687 38.8057 38.5943 39.3313C39.12 39.857 39.7421 40.26 40.4605 40.5404C41.1789 40.8207 41.9674 40.9609 42.826 40.9609C43.7372 40.9609 44.5783 40.7857 45.3493 40.4352C46.1202 40.0673 46.8211 39.5153 47.452 38.7794L50.1855 41.3026C49.3093 42.3715 48.2229 43.1863 46.9263 43.747C45.6471 44.3077 44.2015 44.5881 42.5895 44.5881ZM52.7718 44.2727V30.132H56.872V44.2727H52.7718ZM54.8219 28.1607C54.0684 28.1607 53.4551 27.9417 52.982 27.5036C52.5089 27.0656 52.2724 26.5224 52.2724 25.874C52.2724 25.2257 52.5089 24.6825 52.982 24.2444C53.4551 23.8064 54.0684 23.5873 54.8219 23.5873C55.5754 23.5873 56.1886 23.7976 56.6617 24.2182C57.1349 24.6212 57.3714 25.1469 57.3714 25.7952C57.3714 26.4786 57.1349 27.048 56.6617 27.5036C56.2062 27.9417 55.5929 28.1607 54.8219 28.1607ZM69.2722 29.9217C70.3937 29.9217 71.3924 30.1495 72.2686 30.6051C73.1622 31.0432 73.8631 31.7266 74.3713 32.6552C74.8794 33.5664 75.1335 34.7404 75.1335 36.1773V44.2727H71.0332V36.8081C71.0332 35.6691 70.7791 34.828 70.271 34.2848C69.7804 33.7416 69.0795 33.47 68.1683 33.47C67.52 33.47 66.933 33.6102 66.4073 33.8906C65.8991 34.1534 65.4961 34.5652 65.1982 35.1259C64.9179 35.6866 64.7777 36.4051 64.7777 37.2812V44.2727H60.6774V30.132H64.5937V34.0483L63.8578 32.8655C64.3659 31.9193 65.0931 31.1921 66.0393 30.684C66.9855 30.1758 68.0632 29.9217 69.2722 29.9217ZM85.9706 44.4829C84.3585 44.4829 82.9392 44.1675 81.7126 43.5367C80.5036 42.9059 79.5661 42.0473 78.9003 40.9609C78.2344 39.857 77.9015 38.6041 77.9015 37.2023C77.9015 35.783 78.2257 34.5302 78.874 33.4438C79.5399 32.3398 80.4423 31.4812 81.5812 30.868C82.7202 30.2371 84.0081 29.9217 85.4449 29.9217C86.8292 29.9217 88.0733 30.2196 89.1772 30.8154C90.2987 31.3936 91.1836 32.2347 91.8319 33.3386C92.4802 34.425 92.8044 35.7304 92.8044 37.2549C92.8044 37.4126 92.7956 37.5966 92.7781 37.8069C92.7606 37.9996 92.7431 38.1836 92.7255 38.3588H81.2395V35.967H90.5703L88.9933 36.6767C88.9933 35.9407 88.8443 35.3011 88.5464 34.7579C88.2485 34.2148 87.8368 33.7942 87.3111 33.4963C86.7854 33.1809 86.1721 33.0232 85.4712 33.0232C84.7703 33.0232 84.1483 33.1809 83.6051 33.4963C83.0794 33.7942 82.6676 34.2235 82.3697 34.7842C82.0719 35.3274 81.9229 35.9758 81.9229 36.7292V37.36C81.9229 38.131 82.0894 38.8144 82.4223 39.4102C82.7728 39.9884 83.2546 40.4352 83.8679 40.7506C84.4987 41.0485 85.2347 41.1975 86.0758 41.1975C86.8292 41.1975 87.4863 41.0836 88.047 40.8558C88.6253 40.628 89.151 40.2863 89.6241 39.8307L91.8056 42.1963C91.1573 42.9322 90.3425 43.5017 89.3612 43.9047C88.38 44.2902 87.2498 44.4829 85.9706 44.4829ZM95.8233 44.2727V25.874H99.3454L107.178 38.8582H105.312L113.013 25.874H116.509L116.561 44.2727H112.566L112.54 31.9982H113.276L107.125 42.3277H105.207L98.9248 31.9982H99.8185V44.2727H95.8233ZM129.311 44.2727V41.5129L129.048 40.9084V35.967C129.048 35.0909 128.776 34.4075 128.233 33.9169C127.708 33.4262 126.893 33.1809 125.789 33.1809C125.035 33.1809 124.291 33.3036 123.555 33.5489C122.836 33.7767 122.223 34.0921 121.715 34.4951L120.243 31.6302C121.014 31.087 121.943 30.6664 123.029 30.3686C124.115 30.0707 125.219 29.9217 126.341 29.9217C128.496 29.9217 130.17 30.4299 131.361 31.4462C132.553 32.4625 133.148 34.0483 133.148 36.2036V44.2727H129.311ZM125 44.4829C123.896 44.4829 122.95 44.299 122.162 43.931C121.373 43.5455 120.769 43.0286 120.348 42.3802C119.928 41.7319 119.717 41.0047 119.717 40.1987C119.717 39.3576 119.919 38.6217 120.322 37.9909C120.742 37.36 121.399 36.8694 122.293 36.519C123.187 36.151 124.352 35.967 125.789 35.967H129.547V38.3588H126.236C125.272 38.3588 124.606 38.5165 124.238 38.8319C123.888 39.1473 123.712 39.5416 123.712 40.0147C123.712 40.5404 123.914 40.9609 124.317 41.2763C124.738 41.5742 125.307 41.7231 126.025 41.7231C126.709 41.7231 127.322 41.5654 127.865 41.25C128.409 40.9171 128.803 40.4352 129.048 39.8044L129.679 41.6969C129.381 42.608 128.838 43.3002 128.049 43.7733C127.261 44.2464 126.244 44.4829 125 44.4829ZM135.072 44.2727L141.406 35.967L141.328 38.2274L135.256 30.132H139.856L143.693 35.415L141.958 35.4676L145.927 30.132H150.29L144.192 38.1486V35.9407L150.501 44.2727H145.848L141.827 38.6479L143.535 38.8845L139.54 44.2727H135.072Z" fill="white"/>
</svg>
