<svg width="18" height="18" viewBox="0 0 18 18" fill="none" xmlns="http://www.w3.org/2000/svg">
<circle cx="9" cy="9" r="9" fill="#EC6083"/>
<path d="M8.528 14.144C8.056 14.144 7.616 14.06 7.208 13.892C6.8 13.724 6.448 13.488 6.152 13.184C5.856 12.872 5.636 12.504 5.492 12.08L6.488 11.672C6.656 12.12 6.92 12.468 7.28 12.716C7.64 12.964 8.056 13.088 8.528 13.088C8.896 13.088 9.224 13.016 9.512 12.872C9.8 12.728 10.024 12.52 10.184 12.248C10.352 11.976 10.436 11.648 10.436 11.264C10.436 10.872 10.352 10.544 10.184 10.28C10.024 10.008 9.8 9.8 9.512 9.656C9.224 9.512 8.892 9.44 8.516 9.44C8.396 9.44 8.264 9.448 8.12 9.464C7.984 9.48 7.868 9.504 7.772 9.536L7.52 8.996L9.908 6.08H5.948V5.06H11.24V6.044L8.96 8.852L8.888 8.54C9.424 8.556 9.896 8.68 10.304 8.912C10.712 9.144 11.032 9.46 11.264 9.86C11.496 10.252 11.612 10.712 11.612 11.24C11.612 11.784 11.48 12.276 11.216 12.716C10.952 13.156 10.588 13.504 10.124 13.76C9.66 14.016 9.128 14.144 8.528 14.144Z" fill="#F9F9F9"/>
</svg>
